<svg xmlns="http://www.w3.org/2000/svg" viewBox="0 0 681.72 654.2"><defs><style>.cls-1{fill:#ed1c24;}</style></defs><title>Asset 5logo</title><g id="Layer_2" data-name="Layer 2"><g id="Layer_1-2" data-name="Layer 1"><path class="cls-1" d="M589.31,255.74c4.27,14.1,16.38,22.33,37.94,22.33,22.93,0,31-8,31-18.64,0-10-6-16.72-36.29-20.34-41.92-5.24-49.81-19.87-49.81-34.72,0-15.4,12.3-35.1,50.46-35.1,41.28,0,52.91,21.32,54.15,35.62H654.27c-1.81-7.18-6.69-18.84-32.9-18.84-22.08,0-26.77,9.51-26.77,16.32,0,8.89,5.62,14.2,32.91,17.82,44.82,6,53.19,19.86,53.19,37.55,0,21.43-16.33,37.4-54.84,37.4-34.75,0-55.05-14.7-59.14-39.4Z"/><path class="cls-1" d="M309.25,104.92v69.91H286.83V33.07c0-9.9,0-19.87-.24-29.77h21.87a193.66,193.66,0,0,1,.79,20.53C316.24,11.37,330.18,0,355.12,0c32.15,0,55.58,26.32,55.58,60.86,0,39-26.94,65-59.32,65C326.68,125.87,315.7,115.11,309.25,104.92Zm78.34-43.15c0-21.2-12.22-42.93-39.09-42.93-27.78,0-39.88,19.6-39.88,44.61s13.1,43.43,39.4,43.43S387.59,85.66,387.59,61.77Z"/><path class="cls-1" d="M546.31,62.9c0,33.12-21.42,63-64.26,63-40.34,0-62.87-29.84-62.87-62.82,0-34.18,23.87-63,64-63C524.47,0,546.31,31.37,546.31,62.9Zm-104.17.15c0,22.63,14.46,44.44,40.68,44.44,27.33,0,40.37-20.37,40.37-44.21s-14.41-44.91-40.92-44.91C455.18,18.37,442.14,39.14,442.14,63.05Z"/><path class="cls-1" d="M580.27,104.92v69.91H557.85V33.07c0-9.9,0-19.87-.24-29.77h21.87a193.66,193.66,0,0,1,.79,20.53C587.26,11.37,601.2,0,626.14,0c32.15,0,55.58,26.32,55.58,60.86,0,39-26.94,65-59.32,65C597.7,125.87,586.72,115.11,580.27,104.92Zm78.34-43.15c0-21.2-12.22-42.93-39.09-42.93-27.78,0-39.88,19.6-39.88,44.61s13.1,43.43,39.41,43.43S658.61,85.66,658.61,61.77Z"/><path class="cls-1" d="M309,276.24c0,44.88-14.9,71.16-64.33,71.16-47,0-56.67-26.95-59-40.95h23c3.57,12.12,12.3,23,37.2,23,35,0,40.88-22.45,40.88-52V271c-7.27,13.91-20.2,22.91-45.09,22.91-33.83,0-57.26-26.45-57.26-60.24,0-38.19,27.87-64.39,60.18-64.39,27.42,0,38.52,12.39,42.17,21.63.07-5.76.31-15,.71-18.33h21.73c-.23,11.54-.23,23.08-.23,34.62ZM207.63,232.73c0,24.51,16.15,42.32,39.67,42.32,25.07,0,40.08-15.48,40.08-43.66,0-27.75-14.22-43.28-38.81-43.28C220.7,188.11,207.63,210.35,207.63,232.73Z"/><path class="cls-1" d="M443.13,232.17c0,33.13-21.42,63-64.26,63-40.34,0-62.87-29.84-62.87-62.81,0-34.19,23.88-63.06,64-63.06C421.3,169.27,443.13,200.64,443.13,232.17ZM339,232.33c0,22.63,14.47,44.44,40.69,44.44C407,276.77,420,256.4,420,232.56s-14.42-44.91-40.93-44.91C352,187.65,339,208.41,339,232.33Z"/><path class="cls-1" d="M467.48,237.42c1.26,22.89,16.69,39.66,40.86,39.66,18.63,0,28.92-7.62,35.33-19.18h22.42c-6.42,17.75-23.28,37.24-59,37.24-42.73,0-62.16-31.22-62.16-62.57,0-36,24-63.3,61.61-63.3,45.28,0,61.23,33.17,61.23,62.25,0,2,0,3.58-.08,5.9Zm77-15.93c-1-14.17-8.54-34.76-38-34.76C482,186.73,470,202,468,221.49Z"/><path class="cls-1" d="M352.08,347.42h23.68V309h22.49v38.39h31.1V365.1h-31.1v65.28c0,13.67,3.49,19.75,16.48,19.75a54.11,54.11,0,0,0,11.73-1v16.5c-5.39,1.89-11.61,2.19-18.48,2.19-24.7,0-32.22-11-32.22-34.51V365.1H352.08Z"/><path class="cls-1" d="M456.06,289.51v79.34c4.23-8.76,15.24-24.73,44.07-24.73,27.28,0,45.27,16.72,45.27,50.56v72H522.83V398c0-20.06-7.21-35.08-29.47-35.08-25.22,0-37.23,20.18-37.23,45.12v58.61H433.72V289.51Z"/><path class="cls-1" d="M575.88,412.26c1.26,22.89,16.69,39.67,40.86,39.67,18.63,0,28.92-7.62,35.33-19.18h22.41C668.06,450.5,651.21,470,615.55,470c-42.74,0-62.17-31.22-62.17-62.57,0-36,24-63.3,61.61-63.3,45.28,0,61.23,33.16,61.23,62.25,0,2,0,3.57-.08,5.89Zm77-15.93c-1-14.17-8.54-34.75-38-34.75-24.45,0-36.42,15.26-38.48,34.75Z"/><path class="cls-1" d="M.23,509.44c0-10.05,0-21.19-.23-30.07H21.79c.47,4.1.78,14,.86,22.06,5.18-11.46,17.62-25.36,43.19-25.36,28,0,46.15,17.25,46.15,50v72.61H89.43V530.07c0-19.61-7.51-35.16-29.7-35.16-24.82,0-37,18.92-37,46.54v57.19H.23Z"/><path class="cls-1" d="M247.1,539c0,33.13-21.42,63-64.26,63-40.34,0-62.87-29.84-62.87-62.81,0-34.19,23.88-63.06,64-63.06C225.27,476.07,247.1,507.44,247.1,539Zm-104.17.16c0,22.63,14.47,44.43,40.68,44.43,27.33,0,40.38-20.37,40.38-44.2s-14.42-44.92-40.93-44.92C156,494.44,142.93,515.21,142.93,539.13Z"/><path class="cls-1" d="M372.76,583c0,44.88-14.83,71.16-64,71.16-46.81,0-56.4-27-58.67-41h22.88c3.56,12.12,12.24,23,37,23,34.87,0,40.68-22.46,40.68-52v-6.48c-7.23,13.92-20.1,22.91-44.87,22.91-33.67,0-57-26.44-57-60.23,0-38.19,27.74-64.39,59.89-64.39,27.3,0,38.34,12.38,42,21.63.08-5.77.31-15,.71-18.33H373c-.23,11.54-.23,23.08-.23,34.62ZM271.83,539.52c0,24.51,16.07,42.32,39.49,42.32,24.94,0,39.88-15.48,39.88-43.66,0-27.75-14.16-43.27-38.62-43.27C284.84,494.91,271.83,517.15,271.83,539.52Z"/><path class="cls-1" d="M505,583c0,44.88-14.83,71.16-64,71.16-46.82,0-56.41-27-58.68-41h22.88c3.56,12.12,12.25,23,37,23,34.87,0,40.68-22.46,40.68-52v-6.48c-7.23,13.92-20.1,22.91-44.87,22.91-33.67,0-57-26.44-57-60.23,0-38.19,27.75-64.39,59.89-64.39,27.3,0,38.34,12.38,42,21.63.08-5.77.31-15,.71-18.33h21.63C505,490.91,505,502.45,505,514ZM404,539.52c0,24.51,16.08,42.32,39.49,42.32,25,0,39.88-15.48,39.88-43.66,0-27.75-14.16-43.27-38.62-43.27C417,494.91,404,517.15,404,539.52Z"/><path class="cls-1" d="M523.64,479.37h22.41V598.64H523.64Z"/><path class="cls-1" d="M564.05,509.44c0-10.05,0-21.19-.23-30.07h21.79c.47,4.1.78,14,.86,22.06,5.17-11.46,17.61-25.36,43.19-25.36,28,0,46.15,17.25,46.15,50v72.61H653.24V530.07c0-19.61-7.51-35.16-29.69-35.16-24.82,0-37,18.92-37,46.54v57.19H564.05Z"/></g></g></svg>