<svg xmlns="http://www.w3.org/2000/svg" viewBox="0 0 227.2 23.06"><defs><style>.cls-1,.cls-2{fill:#1c1b1a;}.cls-1{stroke:#1c1b1a;stroke-miterlimit:10;stroke-width:0.4px;}</style></defs><title>Asset 4f</title><g id="Layer_2" data-name="Layer 2"><g id="Your_Design" data-name="Your Design"><path class="cls-1" d="M113.19,22.86l-1.39-.42a7.25,7.25,0,0,1-2.44-1.26,6.91,6.91,0,0,1-1.73-2.06L110,17.44a5.31,5.31,0,0,0,2,2.09,5.53,5.53,0,0,0,2.82.72,5.45,5.45,0,0,0,3.33-.88,2.89,2.89,0,0,0,1.17-2.46V16.4a2.64,2.64,0,0,0-.56-1.75,3.59,3.59,0,0,0-1.43-1,14.52,14.52,0,0,0-2.3-.68l-.08,0-.08,0-.26-.08a21.22,21.22,0,0,1-3.24-1,5.12,5.12,0,0,1-2.11-1.68,5.3,5.3,0,0,1-.89-3.24V6.58a6.15,6.15,0,0,1,.83-3.26,5.26,5.26,0,0,1,2.41-2.06,9.42,9.42,0,0,1,3.83-.71A8,8,0,0,1,118,.94a6.63,6.63,0,0,1,2.11,1.17A7.15,7.15,0,0,1,121.73,4l-2.25,1.7a5.79,5.79,0,0,0-1.8-1.9,4.1,4.1,0,0,0-2.23-.64,5.13,5.13,0,0,0-3.19.87,2.94,2.94,0,0,0-1.13,2.47v.37a2.49,2.49,0,0,0,.61,1.74,3.92,3.92,0,0,0,1.51,1,22.22,22.22,0,0,0,2.5.73l.11,0,.1,0,.16,0a.65.65,0,0,0,.16,0,18.33,18.33,0,0,1,3,1,5,5,0,0,1,2,1.71,5.33,5.33,0,0,1,.81,3.11v.54a6,6,0,0,1-.85,3.26,5.27,5.27,0,0,1-2.47,2,9.86,9.86,0,0,1-3.93.7Z"/><path class="cls-1" d="M126,.78h2.76V22.64H126Zm1.58,10.76h6.22a3.12,3.12,0,0,0,1.66-.44,2.91,2.91,0,0,0,1.1-1.25A4.32,4.32,0,0,0,137,8V7a4.5,4.5,0,0,0-.38-1.9,2.86,2.86,0,0,0-1.1-1.25,3,3,0,0,0-1.66-.45H127.6V.78h6.13a6.34,6.34,0,0,1,3.2.77A5.23,5.23,0,0,1,139,3.71,6.79,6.79,0,0,1,139.79,7V8a6.74,6.74,0,0,1-.75,3.26,5.14,5.14,0,0,1-2.12,2.14,6.54,6.54,0,0,1-3.19.75H127.6Z"/><path class="cls-1" d="M143.59.78h2.77V22.64h-2.77ZM145.13,20h11.1v2.62h-11.1Z"/><path class="cls-1" d="M179.51.78h14.08V3.39H179.51Zm5.64,1.61H188V22.64h-2.8Z"/><path class="cls-1" d="M195.75.78h2.77V22.64h-2.77Zm1.49,0h11.24V3.39H197.24Zm0,9.68h9.85v2.65h-9.85Zm0,9.56h11.24v2.62H197.24Z"/><path class="cls-1" d="M212.26.76H215V22.64h-2.76Zm1.34,10h6.49a3.1,3.1,0,0,0,1.62-.42,2.69,2.69,0,0,0,1.09-1.17,3.86,3.86,0,0,0,.39-1.78V6.79A3.92,3.92,0,0,0,222.8,5a2.77,2.77,0,0,0-1.08-1.19,3.12,3.12,0,0,0-1.63-.42H213.6V.76h6.34a6.8,6.8,0,0,1,3.22.73,5.06,5.06,0,0,1,2.13,2.07A6.37,6.37,0,0,1,226,6.7v.71a6.42,6.42,0,0,1-.75,3.16,5.05,5.05,0,0,1-2.13,2.09,6.8,6.8,0,0,1-3.22.73H213.6Zm5.62,1.94,2.66-.7,5,10.62h-3.23Z"/><polyline class="cls-1" points="162.97 0.76 163.03 5.73 172.65 22.61 175.35 22.61 175.35 0.77 172.51 0.77 172.51 17.43 173.01 18.29 173.01 18.29"/><path class="cls-1" d="M161.7,22.63h-2.8V.77h0l2.8,5"/><path class="cls-2" d="M2.24,21.87A5.71,5.71,0,0,1,0,20.06L1.41,18.6A4.49,4.49,0,0,0,3.16,20a5.68,5.68,0,0,0,2.39.5,4,4,0,0,0,3.23-1.38,5.92,5.92,0,0,0,1.14-3.89V1.12H12V15.28a8.93,8.93,0,0,1-.79,3.91,5.56,5.56,0,0,1-2.31,2.48,7.34,7.34,0,0,1-3.66.85A6.94,6.94,0,0,1,2.24,21.87Z"/><path class="cls-2" d="M20.06,21.66a5.5,5.5,0,0,1-2.47-2.57,9.92,9.92,0,0,1-.82-4.31V1.12h2.09V14.89a5.86,5.86,0,0,0,1.33,4.17,5.28,5.28,0,0,0,4,1.39,5.35,5.35,0,0,0,4-1.39,5.82,5.82,0,0,0,1.34-4.17V1.12h2.1V14.78a9.91,9.91,0,0,1-.83,4.31,5.47,5.47,0,0,1-2.48,2.57,9,9,0,0,1-4.15.86A8.94,8.94,0,0,1,20.06,21.66Z"/><path class="cls-2" d="M41.1,22.52l-1.37-.29a11.36,11.36,0,0,1-2.56-.87A11.05,11.05,0,0,1,35,19.9l1.27-1.66A9.06,9.06,0,0,0,39.15,20a10.09,10.09,0,0,0,3.48.58,7.11,7.11,0,0,0,4.22-1.08,3.53,3.53,0,0,0,1.49-3h0a2.76,2.76,0,0,0-.65-1.94A3.89,3.89,0,0,0,46,13.42a17.14,17.14,0,0,0-2.65-.67l-.09,0-.11,0-.42-.09a25.76,25.76,0,0,1-3.57-.88,5,5,0,0,1-2.28-1.56,4.52,4.52,0,0,1-.94-3h0a6.14,6.14,0,0,1,.88-3.36,5.54,5.54,0,0,1,2.57-2.12A10.18,10.18,0,0,1,43.48.9a9.88,9.88,0,0,1,2.22.25,11.31,11.31,0,0,1,2.17.73A13.27,13.27,0,0,1,50,3.12L48.75,4.76a11.32,11.32,0,0,0-2.68-1.43,7.53,7.53,0,0,0-2.59-.48,6.52,6.52,0,0,0-4,1.1A3.63,3.63,0,0,0,38,7h0a2.53,2.53,0,0,0,.71,1.89,4.45,4.45,0,0,0,1.77,1,28.17,28.17,0,0,0,2.89.7l.13,0,.14,0,.16,0,.17,0a19.85,19.85,0,0,1,3.32.93,5.22,5.22,0,0,1,2.21,1.64,4.71,4.71,0,0,1,.88,3v0a5.85,5.85,0,0,1-.92,3.31,5.7,5.7,0,0,1-2.66,2.1,11,11,0,0,1-4.2.72Z"/><path class="cls-2" d="M52.83,1.12H67.77V3.07H52.83ZM59.25,2h2.1V22.3h-2.1Z"/><path class="cls-2" d="M73.46,22.3h-2.1V1.12h2.1Z"/><path class="cls-2" d="M78.87,1.12H81L93.28,20.2l-.86-.58V1.12h2.1V22.29H92.37L79.83,3.06,81,3.89v18.4h-2.1Z"/></g></g></svg>