<svg xmlns="http://www.w3.org/2000/svg" viewBox="0 0 175.03 22.65"><defs><style>.cls-1{fill:#1c1b1a;}</style></defs><title>Asset 3f</title><g id="Layer_2" data-name="Layer 2"><g id="Your_Design_copy" data-name="Your Design copy"><path class="cls-1" d="M19.17,18.83a7.49,7.49,0,0,0-3-2.55,26,26,0,0,0-4.45-1.52.7.7,0,0,1-.23-.06l-.24,0-.16,0-.15,0a32.85,32.85,0,0,1-3.73-1.1A5.67,5.67,0,0,1,5,12a3.66,3.66,0,0,1-.9-2.59V8.86A4.36,4.36,0,0,1,5.77,5.19a7.57,7.57,0,0,1,4.74-1.3,6.14,6.14,0,0,1,3.32,1A8.45,8.45,0,0,1,16.5,7.67l3.36-2.53a10.92,10.92,0,0,0-2.42-2.83A10,10,0,0,0,14.3.58,11.77,11.77,0,0,0,10.51,0,13.93,13.93,0,0,0,4.82,1.05,7.8,7.8,0,0,0,1.23,4.11,9.16,9.16,0,0,0,0,9v.51A7.86,7.86,0,0,0,1.32,14.3a7.52,7.52,0,0,0,3.14,2.51,31.91,31.91,0,0,0,4.82,1.44l.38.11.12,0,.13,0a22.24,22.24,0,0,1,3.41,1A5.33,5.33,0,0,1,15.45,21a3.4,3.4,0,0,1,.74,1.68h4.14A7.44,7.44,0,0,0,19.17,18.83Z"/><path class="cls-1" d="M37.84,4.23a4.58,4.58,0,0,1,2.47.66,4.29,4.29,0,0,1,1.63,1.86,6.57,6.57,0,0,1,.57,2.82v1.5a6.36,6.36,0,0,1-.57,2.76,4.29,4.29,0,0,1-1.63,1.86,4.58,4.58,0,0,1-2.47.66H30.35v3.89H37.7a9.73,9.73,0,0,0,4.76-1.12,7.66,7.66,0,0,0,3.15-3.18,10,10,0,0,0,1.11-4.85V9.55A10.12,10.12,0,0,0,45.61,4.7a7.86,7.86,0,0,0-3.14-3.22A9.62,9.62,0,0,0,37.7.34H30.35V4.23Z"/><rect class="cls-1" x="28.58" y="16.35" width="1.77" height="3.89"/><polygon class="cls-1" points="30.35 20.24 28.58 20.24 28.58 16.35 30.35 16.35 30.35 4.23 28.58 4.23 28.58 0.34 26.23 0.34 26.23 22.65 30.35 22.65 30.35 20.24"/><rect class="cls-1" x="28.58" y="0.34" width="1.77" height="3.89"/><rect class="cls-1" x="52.37" y="0.34" width="4.12" height="22.31"/><rect class="cls-1" x="114.2" y="2.73" width="4.16" height="1.5"/><polygon class="cls-1" points="118.36 2.73 118.36 4.23 126.75 4.23 126.75 0.34 105.81 0.34 105.81 4.23 114.2 4.23 114.2 2.73 118.36 2.73"/><rect class="cls-1" x="114.2" y="4.23" width="4.16" height="18.42"/><rect class="cls-1" x="132.18" y="14.74" width="1.9" height="3.94"/><rect class="cls-1" x="134.08" y="14.74" width="12.75" height="3.94"/><rect class="cls-1" x="134.08" y="0.34" width="14.83" height="3.89"/><rect class="cls-1" x="132.18" y="0.34" width="1.9" height="3.89"/><polygon class="cls-1" points="134.08 18.67 132.18 18.67 132.18 14.74 134.08 14.74 134.08 4.23 132.18 4.23 132.18 0.34 129.97 0.34 129.97 22.65 134.08 22.65 134.08 18.67"/><rect class="cls-1" x="156.51" y="15.21" width="2.12" height="3.89"/><path class="cls-1" d="M166.17,4.2a4.61,4.61,0,0,1,2.43.63,4.25,4.25,0,0,1,1.61,1.77,5.91,5.91,0,0,1,.57,2.68v.92a5.81,5.81,0,0,1-.57,2.65,4.13,4.13,0,0,1-1.62,1.74,4.71,4.71,0,0,1-2.42.62h-7.54V19.1h6.69l-.45-1,4-1,.69,1.47a8.17,8.17,0,0,0,1.21-.52,7.63,7.63,0,0,0,3.18-3.11A9.58,9.58,0,0,0,175,10.2v-1a9.53,9.53,0,0,0-1.12-4.68,7.56,7.56,0,0,0-3.18-3.08A10.12,10.12,0,0,0,166,.31h-7.32V4.2Z"/><path class="cls-1" d="M164.87,18.09l.45,1H166a10.87,10.87,0,0,0,3.57-.57l-.69-1.47Z"/><path class="cls-1" d="M169.52,18.53a10.87,10.87,0,0,1-3.57.57h-.63l1.59,3.55h4.56Z"/><rect class="cls-1" x="156.51" y="0.31" width="2.12" height="3.89"/><polygon class="cls-1" points="156.51 19.1 156.51 15.21 158.63 15.21 158.63 4.21 156.51 4.21 156.51 0.31 154.52 0.31 154.52 22.65 158.63 22.65 158.63 19.1 156.51 19.1"/><polygon class="cls-1" points="81.2 0.3 81.28 7.7 89.8 22.65 93.98 22.65 81.2 0.3"/><rect class="cls-1" x="95.39" y="0.32" width="4.23" height="22.32"/><polygon class="cls-1" points="79.31 7.71 75.15 0.32 75.15 22.65 79.31 22.65 79.31 7.71"/></g></g></svg>